<svg xmlns="http://www.w3.org/2000/svg" width="24" height="24" viewBox="0 0 24 24"><g stroke="#000" stroke-linecap="round" stroke-linejoin="round" stroke-miterlimit="10" fill="none"><path d="M20.254 13.5h3.246v-3h-3.247c-.209-.867-.551-2.181-1.003-2.922l2.296-2.295-2.829-2.829-2.297 2.296c-.74-.451-2.053-.793-2.92-1.002v-3.248h-3v3.248c-.867.209-2.181.551-2.921 1.002l-2.297-2.296-2.829 2.829 2.297 2.296c-.452.74-.794 2.054-1.004 2.921h-3.246v3h3.246c.21.867.552 2.182 1.004 2.921l-2.297 2.297 2.829 2.828 2.296-2.298c.741.454 2.055.796 2.922 1.006v3.246h3v-3.246c.867-.21 2.181-.552 2.92-1.004l2.298 2.296 2.828-2.828-2.296-2.297c.452-.739.794-2.054 1.004-2.921z"/><circle cx="12" cy="12" r="4.5"/></g></svg>