<svg xmlns="http://www.w3.org/2000/svg" width="24" height="24" viewBox="0 0 24 24"><g stroke="#000" stroke-linejoin="round" stroke-miterlimit="10" fill="none"><path d="M8.254 17.941l9.613-9.613c1.456.617 3.201.334 4.389-.854 1.187-1.186 1.469-2.859.853-4.314l-1.913 1.988h-2.121v-2.27l1.915-1.914c-1.458-.617-3.204-.334-4.391.854s-1.47 2.932-.854 4.389l-9.612 9.613c-1.456-.617-3.202-.334-4.389.854s-1.47 2.932-.854 4.389l1.914-1.914h2.27v2.121l-1.988 1.914c1.457.615 3.165.332 4.352-.854 1.187-1.185 1.432-2.934.816-4.389zM11.999 9.951l-3.745-3.744c.616-1.457.334-3.201-.854-4.389-1.186-1.187-2.857-1.47-4.314-.853l1.988 1.914v2.27h-2.27l-1.913-1.989c-.617 1.455-.333 3.164.853 4.352s2.933 1.451 4.389.836l3.746 3.734M11.999 14.193l3.747 3.748c-.616 1.457-.334 3.203.854 4.389 1.187 1.188 2.933 1.469 4.39.854l-1.915-1.914v-2.121h2.121l1.914 1.914c.616-1.457.333-3.201-.854-4.389s-2.933-1.471-4.389-.854l-3.745-3.746"/></g></svg>